HIERARCHY
ROOT Hips
{
	OFFSET 0.00000 0.00000 0.00000
	CHANNELS 6 Xposition Yposition Zposition Zrotation Yrotation Xrotation 
	JOINT LHipJoint
	{
		OFFSET 0 0 0
		CHANNELS 3 Zrotation Yrotation Xrotation
		JOINT LeftUpLeg
		{
			OFFSET 1.28858 -1.83292 1.03970
			CHANNELS 3 Zrotation Yrotation Xrotation
			JOINT LeftLeg
			{
				OFFSET 2.47846 -6.80952 0.00000
				CHANNELS 3 Zrotation Yrotation Xrotation
				JOINT LeftFoot
				{
					OFFSET 2.75274 -7.56311 0.00000
					CHANNELS 3 Zrotation Yrotation Xrotation
					JOINT LeftToeBase
					{
						OFFSET 0.12848 -0.35301 1.68223
						CHANNELS 3 Zrotation Yrotation Xrotation
						End Site
						{
							OFFSET 0.00000 -0.00000 0.87311
						}
					}
				}
			}
		}
	}
	JOINT RHipJoint
	{
		OFFSET 0 0 0
		CHANNELS 3 Zrotation Yrotation Xrotation
		JOINT RightUpLeg
		{
			OFFSET -1.31183 -1.83292 1.03970
			CHANNELS 3 Zrotation Yrotation Xrotation
			JOINT RightLeg
			{
				OFFSET -2.44740 -6.72417 0.00000
				CHANNELS 3 Zrotation Yrotation Xrotation
				JOINT RightFoot
				{
					OFFSET -2.67343 -7.34519 0.00000
					CHANNELS 3 Zrotation Yrotation Xrotation
					JOINT RightToeBase
					{
						OFFSET -0.16914 -0.46471 1.77626
						CHANNELS 3 Zrotation Yrotation Xrotation
						End Site
						{
							OFFSET -0.00000 -0.00000 0.92777
						}
					}
				}
			}
		}
	}
	JOINT LowerBack
	{
		OFFSET 0 0 0
		CHANNELS 3 Zrotation Yrotation Xrotation
		JOINT Spine
		{
			OFFSET 0.01249 2.14252 0.03842
			CHANNELS 3 Zrotation Yrotation Xrotation
			JOINT Spine1
			{
				OFFSET -0.02957 2.14199 -0.03751
				CHANNELS 3 Zrotation Yrotation Xrotation
				JOINT Neck
				{
					OFFSET 0 0 0
					CHANNELS 3 Zrotation Yrotation Xrotation
					JOINT Neck1
					{
						OFFSET -0.01678 1.65709 -0.05476
						CHANNELS 3 Zrotation Yrotation Xrotation
						JOINT Head
						{
							OFFSET 0.07912 1.58331 -0.11843
							CHANNELS 3 Zrotation Yrotation Xrotation
							End Site
							{
								OFFSET 0.03298 1.73940 -0.04271
							}
						}
					}
				}
				JOINT LeftShoulder
				{
					OFFSET 0 0 0
					CHANNELS 3 Zrotation Yrotation Xrotation
					JOINT LeftArm
					{
						OFFSET 3.39556 1.16496 0.08673
						CHANNELS 3 Zrotation Yrotation Xrotation
						JOINT LeftForeArm
						{
							OFFSET 5.23910 -0.00000 -0.00000
							CHANNELS 3 Zrotation Yrotation Xrotation
							JOINT LeftHand
							{
								OFFSET 3.31467 -0.00000 0.00000
								CHANNELS 3 Zrotation Yrotation Xrotation
								JOINT LeftFingerBase
								{
									OFFSET 0 0 0
									CHANNELS 3 Zrotation Yrotation Xrotation
									JOINT LeftHandIndex1
									{
										OFFSET 0.96590 -0.00000 0.00000
										CHANNELS 3 Zrotation Yrotation Xrotation
										End Site
										{
											OFFSET 0.77873 -0.00000 0.00000
										}
									}
								}
								JOINT LThumb
								{
									OFFSET 0 0 0
									CHANNELS 3 Zrotation Yrotation Xrotation
									End Site
									{
										OFFSET 0.79062 -0.00000 0.79062
									}
								}
							}
						}
					}
				}
				JOINT RightShoulder
				{
					OFFSET 0 0 0
					CHANNELS 3 Zrotation Yrotation Xrotation
					JOINT RightArm
					{
						OFFSET -3.27193 1.31331 0.33940
						CHANNELS 3 Zrotation Yrotation Xrotation
						JOINT RightForeArm
						{
							OFFSET -5.30252 -0.00000 0.00000
							CHANNELS 3 Zrotation Yrotation Xrotation
							JOINT RightHand
							{
								OFFSET -3.67875 -0.00000 0.00000
								CHANNELS 3 Zrotation Yrotation Xrotation
								JOINT RightFingerBase
								{
									OFFSET 0 0 0
									CHANNELS 3 Zrotation Yrotation Xrotation
									JOINT RightHandIndex1
									{
										OFFSET -0.59481 -0.00000 0.00000
										CHANNELS 3 Zrotation Yrotation Xrotation
										End Site
										{
											OFFSET -0.47955 -0.00000 0.00000
										}
									}
								}
								JOINT RThumb
								{
									OFFSET 0 0 0
									CHANNELS 3 Zrotation Yrotation Xrotation
									End Site
									{
										OFFSET -0.48687 -0.00000 0.48687
									}
								}
							}
						}
					}
				}
			}
		}
	}
}
MOTION
Frames: 14
Frame Time: 0.0444444
0.00 0.00 0.00 -204.6810 4.0077 75.9403 0.0000 0.0000 0.0000 -5.2045 -7.9969 -44.9149 3.1907 10.9975 32.2716 -0.5319 -12.7961 4.9340 2.7557 -10.2887 -29.9169 0.0000 0.0000 0.0000 4.8967 -8.2557 35.9514 -8.6863 -16.6016 54.9989 179.7963 4.5558 11.4319 -1.7613 8.3502 -23.7828 13.5380 2.5580 10.2545 2.4841 5.9251 -5.9743 -5.9487 1.9049 -11.3836 -10.4908 -5.5523 -18.4140 16.9708 -7.8288 15.9698 6.6338 -2.3807 9.2202 0.0000 0.0000 0.0000 26.8284 -5.7864 -20.5486 24.1651 -35.3384 -7.8018 -0.0000 -0.0000 3.7546 -12.6989 -56.3325 10.6221 -7.1250 0.0000 -0.0000 -24.2327 -23.0810 34.0722 0.0000 0.0000 0.0000 -4.1933 -1.8210 -62.9402 -13.8537 22.5251 -2.7718 0.0000 -0.0000 -16.5701 3.8253 -58.0242 -3.2462 7.1250 -0.0000 -0.0000 88.6206 -70.9188 -68.3097
0.00 0.00 0.00 -200.4530 11.0494 94.0736 0.0000 0.0000 0.0000 -6.6063 -8.6717 -46.6322 3.0358 10.7527 31.4504 0.3198 7.7528 10.6924 8.2840 16.3242 53.5794 0.0000 0.0000 0.0000 5.8482 -11.3112 33.0705 -8.2471 -16.2980 53.4480 179.7253 6.0057 13.9075 -0.7663 5.5902 -15.5998 14.7765 2.6156 14.0971 0.2843 6.5213 -5.3949 -9.5212 1.8599 -12.5340 -6.6051 -2.9973 -5.6648 21.0885 -2.8449 -1.4241 7.4952 -0.7972 1.0221 0.0000 0.0000 0.0000 18.4263 -7.6789 -20.1473 31.5125 -42.1551 -12.4124 -0.0000 0.0000 -40.2888 -22.6853 -14.7068 6.0576 -7.1250 0.0000 -0.0000 -31.9458 14.9342 27.3735 0.0000 0.0000 0.0000 12.6621 -4.0151 -64.2844 -14.1413 22.9364 -2.8830 0.0000 -0.0000 -0.7470 12.3603 -54.6757 -10.1370 7.1250 -0.0000 -0.0000 83.3226 -67.5879 -58.6311
0.00 0.00 0.00 -197.2170 14.8780 107.6890 0.0000 0.0000 0.0000 -6.7541 -9.5342 -46.8743 2.6647 10.1314 29.4033 -0.3472 11.6660 1.4110 8.4642 16.4503 54.2179 0.0000 0.0000 0.0000 7.2710 -13.2414 31.1644 -7.0228 -15.3510 48.9604 179.9150 -1.8537 -6.5178 -10.9551 -17.9131 62.6358 14.4363 3.2108 12.9093 0.7799 7.0148 -4.7178 -8.6903 2.3369 -10.9772 -8.5077 -2.7319 -1.8802 22.9635 -2.0121 -3.1672 8.5183 -0.5912 -0.1875 0.0000 0.0000 0.0000 7.5556 -7.8434 -17.3938 40.2608 -48.2237 -18.6335 -0.0000 0.0000 -44.8049 -19.5639 -5.1522 1.8279 -7.1250 0.0000 -0.0000 -32.5238 23.8708 19.9064 0.0000 0.0000 0.0000 16.0567 -14.9761 -22.0769 -15.8724 25.3473 -3.5911 0.0000 -0.0000 -39.2860 -15.1781 -51.7144 12.0210 7.1250 -0.0000 -0.0000 60.2888 -76.5317 -47.6754
0.00 0.00 0.00 -191.9400 15.8786 125.7790 0.0000 0.0000 0.0000 -11.2457 -12.6090 -38.6513 1.4876 7.7054 21.8229 -0.5087 13.7022 0.9111 10.7283 17.7995 61.8959 0.0000 0.0000 0.0000 8.8537 -22.1540 10.6879 -11.4657 -18.1555 64.2850 177.9662 11.4192 -25.6948 -0.9717 -6.2756 17.5863 10.8546 1.8220 9.9028 3.1843 4.3008 -3.0473 -3.3855 1.6734 -8.3563 -19.4231 3.0579 -0.5428 27.4758 3.5051 10.6518 12.4863 2.4697 2.0921 0.0000 0.0000 0.0000 -14.5957 -15.6282 -26.4411 37.8375 -46.7352 -16.8472 -0.0000 0.0000 -54.5802 -12.5090 -5.5470 1.2285 -7.1250 0.0000 -0.0000 -28.0834 24.0389 16.1735 0.0000 0.0000 0.0000 22.4776 -6.1517 -24.9657 -14.9786 24.1163 -3.2172 0.0000 -0.0000 -22.4719 -30.8337 -45.0920 22.9168 7.1250 -0.0000 -0.0000 19.2580 -78.8649 -15.2620
0.00 0.00 0.00 -182.1290 20.1088 146.8940 0.0000 0.0000 0.0000 -8.8105 -8.6314 -16.3803 0.4124 4.1224 11.4214 0.6417 6.2532 14.3027 0.6703 5.2357 14.5820 0.0000 0.0000 0.0000 21.9204 -22.4406 -1.0007 -14.8197 -19.3441 74.6930 177.2016 10.5311 -30.1555 -0.2778 3.3898 -9.3661 11.7336 2.4668 5.4316 1.5872 4.3182 -1.9017 -5.2599 1.8649 -4.3475 -3.5605 0.6423 -12.6233 9.1557 0.6909 26.6584 4.1192 1.6820 10.5615 -0.0000 -0.0000 0.0000 -39.8503 -26.1247 -0.7062 25.8374 -37.0477 -8.7895 -0.0000 0.0000 -49.3763 17.8848 -41.0423 -11.9634 -7.1250 0.0000 -0.0000 -9.1549 -11.9972 10.9833 -0.0000 -0.0000 0.0000 46.2543 -7.6427 -24.7294 -16.3696 26.0192 -3.8066 0.0000 -0.0000 -15.1720 -12.7206 -44.6847 9.0199 7.1250 -0.0000 -0.0000 40.9303 -71.6709 -27.3057
0.00 0.00 0.00 -181.8570 13.9859 159.4110 0.0000 0.0000 0.0000 -13.8553 -7.9658 -13.9281 0.1265 2.2925 6.3147 0.1839 11.2684 10.3820 12.5563 18.6161 67.7417 0.0000 0.0000 0.0000 16.1827 -27.2578 -2.6291 -13.7263 -19.0289 71.3668 177.4056 2.0925 -29.9521 -0.0622 1.6093 -4.4272 2.8553 -0.8681 -3.5660 0.3369 -1.2042 -1.4573 -1.3009 -0.5891 0.4503 -3.9657 3.0589 -10.9898 11.3026 3.6087 24.0911 5.0488 3.0688 9.0298 0.0000 0.0000 0.0000 -56.6450 -23.4057 0.6775 25.4457 -36.6561 -8.5546 -0.0000 0.0000 -38.7760 40.3742 -51.0571 -33.4780 -7.1250 0.0000 -0.0000 -1.9702 -28.3745 2.6708 0.0000 0.0000 0.0000 57.8631 3.6100 -29.2034 -13.8431 22.5099 -2.7677 0.0000 -0.0000 -3.6595 -7.9971 -35.1225 4.6210 7.1250 -0.0000 -0.0000 30.7116 -62.7392 -13.9141
0.00 0.00 0.00 -185.0180 15.0950 164.1520 0.0000 0.0000 0.0000 -16.3711 -6.4729 -19.3812 0.2399 3.1523 8.7030 -0.0687 14.9884 9.7433 12.0028 18.3918 65.9976 0.0000 0.0000 0.0000 13.7001 -19.3958 -3.1229 -13.4732 -18.9464 70.5891 179.0772 -7.5648 -22.3982 -0.1768 -2.7082 7.4675 -2.9305 0.4201 -0.5649 -1.0034 0.5946 -2.2670 0.6039 0.3701 -2.0270 -7.5130 3.1298 -3.3077 14.3749 3.8040 17.5046 6.0815 2.8412 5.2846 -0.0000 0.0000 0.0000 -65.7078 -24.4194 9.6022 20.8168 -31.6139 -5.9536 -0.0000 0.0000 -30.2712 47.8509 -41.1486 -36.0166 -7.1250 0.0000 -0.0000 5.4349 -22.3055 -7.1147 -0.0000 0.0000 0.0000 64.6970 -9.6979 -14.3728 -16.8442 26.6520 -4.0172 0.0000 -0.0000 -17.4680 -11.8325 -36.8418 7.1600 7.1250 -0.0000 -0.0000 28.6729 -65.2282 -14.5635
0.00 0.00 0.00 -187.4640 19.8702 174.2020 0.0000 0.0000 0.0000 -20.6244 -0.9909 -19.0604 0.0219 0.9564 2.6287 0.4408 11.2909 13.2884 11.6906 18.2568 65.0048 0.0000 0.0000 0.0000 9.0485 -6.6292 -0.7209 -10.2153 -17.5291 60.2054 179.6349 -4.1680 -13.7178 -5.4757 13.9003 -42.8394 -6.2498 1.2855 4.9158 -3.4265 1.2811 -2.9432 -0.2130 0.8940 -5.8955 -4.1280 3.9932 -7.3771 10.4604 4.9999 16.0893 4.3595 3.2334 5.6618 0.0000 0.0000 0.0000 -75.9392 -13.2003 29.9395 16.1387 -25.7084 -3.7059 -0.0000 0.0000 -17.7140 28.0920 -26.6142 -13.4480 -7.1250 0.0000 -0.0000 -1.1389 0.3888 1.1313 0.0000 0.0000 0.0000 79.0886 -13.5211 -8.2728 -14.2774 23.1299 -2.9362 0.0000 -0.0000 -13.6888 -18.7590 -34.0283 10.7612 7.1250 -0.0000 -0.0000 17.8787 -64.6229 -8.6217
0.00 0.00 0.00 -179.8320 26.7184 180.5020 0.0000 0.0000 0.0000 -14.2814 -5.7196 -10.7017 0.5592 4.7900 13.3105 -0.1712 12.5101 6.2652 12.3804 18.5469 67.1896 0.0000 0.0000 0.0000 11.3948 -10.5369 -3.7212 -14.3334 -19.2120 73.2201 -179.6782 -10.0813 -5.1000 -0.2230 3.0395 -8.3888 -1.5521 2.2172 0.9003 -1.7428 2.9695 0.1867 -0.9492 1.4997 -0.2989 -1.3830 4.6019 1.5171 7.1950 6.2030 10.6246 2.7171 3.5025 2.8666 0.0000 0.0000 0.0000 -81.3013 7.2592 22.0576 15.2878 -24.5455 -3.3446 -0.0000 0.0000 -7.9065 24.3327 -25.9002 -11.1735 -7.1250 0.0000 -0.0000 -3.2845 1.9662 3.1751 0.0000 0.0000 0.0000 81.8485 -20.5145 -8.9132 -13.4632 21.9621 -2.6240 0.0000 -0.0000 -13.6212 -22.7521 -42.8596 15.9215 7.1250 -0.0000 -0.0000 25.4912 -73.8483 -17.6801
0.00 0.00 0.00 -178.7700 27.7635 179.4400 0.0000 0.0000 0.0000 -14.6626 -7.3251 -5.3404 0.0234 0.9877 2.7149 0.0242 0.8594 -3.3884 9.1562 16.9072 56.6287 0.0000 0.0000 0.0000 9.1455 -15.4285 -2.2786 -17.8724 -19.8911 83.7684 179.8433 -3.2965 -9.4412 -0.0316 1.1478 -3.1556 -1.8186 2.0951 -0.1814 -1.8328 2.9021 1.6199 -0.8102 1.4629 1.7679 -0.5771 4.4240 1.8376 6.1453 6.0072 10.0841 2.1926 3.3686 2.6846 -0.0000 -0.0000 0.0000 -73.6832 16.3949 3.6296 16.3538 -25.9981 -3.7997 -0.0000 0.0000 -18.4216 15.6035 -17.4772 -4.7943 -7.1250 0.0000 -0.0000 -8.1394 12.0144 6.3326 -0.0000 -0.0000 0.0000 79.5352 -26.1951 -10.8899 -12.1874 20.0850 -2.1662 0.0000 -0.0000 -9.7202 -12.2951 -42.9741 8.4504 7.1250 -0.0000 -0.0000 37.7686 -70.2942 -23.9229
0.00 0.00 0.00 -179.5500 25.4871 178.5140 0.0000 0.0000 0.0000 -19.7408 2.0037 -17.9616 1.9196 8.6966 24.8507 -0.6108 -13.6913 5.4054 10.5596 17.7127 61.3428 0.0000 0.0000 0.0000 8.4629 -11.9050 -1.9189 -17.5235 -19.8523 82.7419 179.5267 6.0346 -12.3297 -5.2196 13.6269 -41.7629 -3.8717 1.1275 3.6621 -1.7760 1.4556 1.5924 0.2880 0.7588 -0.4638 -1.3492 4.6528 -0.2215 7.8214 6.1886 4.5147 2.7742 3.2874 1.1528 -0.0000 0.0000 0.0000 -60.2115 13.5406 0.9033 11.9869 -19.7850 -2.0979 -0.0000 0.0000 -11.5816 17.0306 -13.6278 -4.1280 -7.1250 0.0000 -0.0000 -7.1002 15.8239 4.9335 -0.0000 0.0000 0.0000 76.2384 -28.4786 -7.8813 -11.8476 19.5757 -2.0509 0.0000 -0.0000 -8.5521 -14.8164 -43.7271 10.3616 7.1250 -0.0000 -0.0000 36.6395 -71.7104 -24.2374
0.00 0.00 0.00 -183.4230 23.3448 176.4690 0.0000 0.0000 0.0000 -26.5150 3.8927 -13.1218 3.1267 10.8974 31.9348 -0.1057 -8.2373 9.2822 10.3697 17.6126 60.7169 0.0000 0.0000 0.0000 12.9773 4.4546 -11.9302 -13.0533 -18.8013 69.2908 179.4361 5.8516 -13.4013 -5.3175 13.7326 -42.1769 -6.0516 0.3719 3.5626 -1.8326 0.3184 0.4802 1.4880 0.2259 -1.5233 -2.8723 5.2006 3.9455 8.5218 6.9475 5.7145 3.1603 3.6446 0.6975 0.0000 0.0000 0.0000 -62.0687 9.3013 22.4620 19.6995 -30.2786 -5.3790 -0.0000 0.0000 -14.5403 6.8204 -13.9624 -1.6530 -7.1250 0.0000 -0.0000 -14.0403 16.1846 9.8746 0.0000 0.0000 0.0000 78.9376 -25.3118 8.5040 -14.3324 23.2079 -2.9578 0.0000 -0.0000 -2.7359 -2.6855 -38.3148 1.6657 7.1250 -0.0000 -0.0000 39.9761 -63.8886 -19.8282
0.00 0.00 0.00 -181.1120 17.0193 175.6750 0.0000 0.0000 0.0000 -22.5605 1.2236 -11.8002 3.1229 10.8914 31.9146 0.4197 5.8110 11.6214 10.5273 17.6959 61.2365 0.0000 0.0000 0.0000 17.0834 6.4389 -14.0544 -8.0976 -16.1906 52.9134 179.5526 7.0881 -12.1636 -4.7349 13.0789 -39.6644 -4.0113 -0.8593 3.2828 -0.0152 -1.2194 1.4903 2.2735 -0.6083 -0.2240 -2.8714 4.5716 4.7321 6.2371 6.1085 5.8364 2.3939 3.1783 0.7283 -0.0000 0.0000 0.0000 -69.8332 3.9090 37.2987 33.4653 -43.6847 -13.7424 -0.0000 0.0000 -17.3428 6.6019 -19.0750 -2.1661 -7.1250 0.0000 -0.0000 -13.9963 11.2139 11.3602 -0.0000 0.0000 0.0000 82.5849 -21.1746 16.2597 -18.9308 29.3326 -4.9969 0.0000 -0.0000 -10.8926 -1.9281 -36.9370 1.1590 7.1250 -0.0000 -0.0000 38.9357 -62.6335 -18.0969
0.00 0.00 0.00 -183.3300 13.4544 174.2950 0.0000 0.0000 0.0000 -24.5286 -3.3487 -5.6324 0.7384 5.4895 15.3103 -0.0714 5.4071 0.8093 9.2652 16.9754 57.0027 0.0000 0.0000 0.0000 14.7625 8.2729 -13.6885 -5.4512 -13.8746 42.7374 179.5594 7.6261 -12.1878 -5.0735 13.4661 -41.1393 -6.0354 -0.7408 3.1306 -0.2919 -1.1015 1.4225 3.1174 -0.5517 -0.1785 -2.8955 3.5874 4.8072 5.7816 4.7887 5.0926 2.2562 2.4902 0.5546 -0.0000 -0.0000 0.0000 -73.6803 -0.0246 49.1816 50.1574 -53.0588 -26.2999 -0.0000 0.0000 -20.7729 2.6146 -16.6266 -0.7486 -7.1250 0.0000 -0.0000 -16.6617 13.8105 12.7653 -0.0000 -0.0000 0.0000 84.2028 -19.5513 22.5413 -22.8639 33.9397 -7.0622 0.0000 -0.0000 -13.5021 -4.2011 -35.7984 2.4603 7.1250 -0.0000 -0.0000 35.3259 -62.3218 -15.9225
